<svg xmlns="http://www.w3.org/2000/svg" width="64" height="64" viewBox="0 0 1024 1024">
  <g fill="none" stroke-linecap="round" stroke-linejoin="round">
    <path d="M 290 650 L 470 512 L 730 340" stroke="#ffffff" stroke-width="140"/>
    <path d="M 290 650 L 470 512 L 730 684" stroke="#ffffff" stroke-width="140"/>
    <circle cx="290" cy="650" r="74" fill="#ffffff"/>
    <circle cx="470" cy="512" r="74" fill="#ffffff"/>
    <circle cx="730" cy="340" r="74" fill="#ffffff"/>
    <circle cx="730" cy="684" r="74" fill="#ffffff"/>
    <rect x="350" y="760" width="420" height="100" rx="50" fill="#ffffff"/>

    <path d="M 290 650 L 470 512 L 730 340" stroke="#0b0b10" stroke-width="96"/>
    <path d="M 290 650 L 470 512 L 730 684" stroke="#0b0b10" stroke-width="96"/>
    <circle cx="290" cy="650" r="58" fill="#0b0b10"/>
    <circle cx="470" cy="512" r="58" fill="#0b0b10"/>
    <circle cx="730" cy="340" r="58" fill="#0b0b10"/>
    <circle cx="730" cy="684" r="58" fill="#0b0b10"/>
    <rect x="350" y="760" width="420" height="86" rx="43" fill="#0b0b10"/>
  </g>
</svg>

